<?xml version="1.0" encoding="UTF-8"?><svg id="a" xmlns="http://www.w3.org/2000/svg" viewBox="0 0 744.7 504.6"><defs><style>.b{stroke-linecap:round;}.b,.c{fill:none;stroke:#02283f;stroke-linejoin:round;stroke-width:4px;}.d{opacity:.6;}.e{opacity:.15;}</style></defs><g class="d"><g class="e"><rect class="b" x="2" y="131" width="152.5" height="371.6"/><line class="b" x1="35.2" y1="500" x2="35.2" y2="131"/><line class="b" x1="123.2" y1="500" x2="123.2" y2="131"/><line class="b" x1="79.2" y1="500" x2="79.2" y2="131"/><line class="b" x1="2.2" y1="170" x2="155.2" y2="170"/><line class="b" x1="2.2" y1="189" x2="155.2" y2="189"/><line class="b" x1="2.2" y1="236" x2="155.2" y2="236"/><line class="b" x1="2.2" y1="257" x2="155.2" y2="257"/><line class="b" x1="2.2" y1="306" x2="155.2" y2="306"/><line class="b" x1="2.2" y1="327" x2="155.2" y2="327"/><line class="b" x1="2.2" y1="378" x2="155.2" y2="378"/><line class="b" x1="2.2" y1="398" x2="155.2" y2="398"/><line class="b" x1="2.2" y1="441" x2="155.2" y2="441"/><line class="b" x1="2.2" y1="460" x2="155.2" y2="460"/><rect class="b" x="36" y="98.4" width="87.7" height="33.4"/><rect class="b" x="56.4" y="65" width="46.9" height="33.4"/></g><g class="e"><polygon class="b" points="641.5 501.7 579.7 501.7 579.7 129.6 742.7 129.6 742.7 501.7 694.7 501.7 641.5 501.7"/><rect class="b" x="600.8" y="163.7" width="19.7" height="34.6"/><rect class="b" x="634.5" y="163.7" width="19.7" height="34.6"/><rect class="b" x="668.2" y="163.7" width="19.7" height="34.6"/><rect class="b" x="702" y="163.7" width="19.7" height="34.6"/><rect class="b" x="600.8" y="215.7" width="19.7" height="34.6"/><rect class="b" x="634.5" y="215.7" width="19.7" height="34.6"/><rect class="b" x="668.2" y="215.7" width="19.7" height="34.6"/><rect class="b" x="702" y="215.7" width="19.7" height="34.6"/><rect class="b" x="600.8" y="314.7" width="19.7" height="29.6"/><rect class="b" x="634.5" y="314.7" width="19.7" height="29.6"/><rect class="b" x="668.2" y="314.7" width="19.7" height="29.6"/><rect class="b" x="702" y="314.7" width="19.7" height="29.6"/><rect class="b" x="600.8" y="420.1" width="19.7" height="29.6"/><rect class="b" x="634.5" y="420.1" width="19.7" height="29.6"/><rect class="b" x="668.2" y="420.1" width="19.7" height="29.6"/><rect class="b" x="702" y="420.1" width="19.7" height="29.6"/><line class="b" x1="600.2" y1="280" x2="721.2" y2="280"/><line class="b" x1="600.2" y1="296" x2="721.2" y2="296"/><line class="b" x1="600.2" y1="364" x2="721.2" y2="364"/><line class="b" x1="600.2" y1="381" x2="721.2" y2="381"/><line class="b" x1="600.2" y1="398" x2="721.2" y2="398"/><rect class="b" x="610.6" y="94" width="110.6" height="35.6"/><rect class="b" x="634.5" y="58.4" width="62.8" height="35.6"/><line class="b" x1="664.2" y1="58" x2="664.2" y2="2"/></g><g class="e"><polygon class="b" points="497.9 502 413.8 502 413.8 141.1 455.9 95.2 497.9 141.1 497.9 502"/><path class="b" d="M568.4,502h-70.5V211.1c0-40.6,26.7-47.2,70.5-68.3v359.2Z"/><line class="c" x1="523.2" y1="422" x2="523.2" y2="440"/><line class="c" x1="542.2" y1="422" x2="542.2" y2="440"/><line class="c" x1="523.2" y1="384" x2="523.2" y2="402"/><line class="c" x1="542.2" y1="384" x2="542.2" y2="402"/><line class="c" x1="523.2" y1="346" x2="523.2" y2="364"/><line class="c" x1="542.2" y1="346" x2="542.2" y2="364"/><line class="c" x1="523.2" y1="308" x2="523.2" y2="326"/><line class="c" x1="542.2" y1="308" x2="542.2" y2="326"/><line class="c" x1="523.2" y1="270" x2="523.2" y2="288"/><line class="c" x1="542.2" y1="270" x2="542.2" y2="288"/><line class="c" x1="523.2" y1="232" x2="523.2" y2="250"/><line class="c" x1="542.2" y1="232" x2="542.2" y2="250"/><line class="c" x1="523.2" y1="194" x2="523.2" y2="212"/><line class="c" x1="542.2" y1="194" x2="542.2" y2="212"/><path class="b" d="M343,502h70.5V211.1c0-40.6-26.7-47.2-70.5-68.3v359.2Z"/><line class="c" x1="385.2" y1="422" x2="385.2" y2="440"/><line class="c" x1="367.2" y1="422" x2="367.2" y2="440"/><line class="c" x1="385.2" y1="384" x2="385.2" y2="402"/><line class="c" x1="367.2" y1="384" x2="367.2" y2="402"/><line class="c" x1="385.2" y1="346" x2="385.2" y2="364"/><line class="c" x1="367.2" y1="346" x2="367.2" y2="364"/><line class="c" x1="385.2" y1="308" x2="385.2" y2="326"/><line class="c" x1="367.2" y1="308" x2="367.2" y2="326"/><line class="c" x1="385.2" y1="270" x2="385.2" y2="288"/><line class="c" x1="367.2" y1="270" x2="367.2" y2="288"/><line class="c" x1="385.2" y1="232" x2="385.2" y2="250"/><line class="c" x1="367.2" y1="232" x2="367.2" y2="250"/><line class="c" x1="385.2" y1="194" x2="385.2" y2="212"/><line class="c" x1="367.2" y1="194" x2="367.2" y2="212"/><line class="b" x1="439.2" y1="154" x2="439.2" y2="413"/><line class="b" x1="475.2" y1="154" x2="475.2" y2="413"/><line class="b" x1="427.8" y1="406" x2="483.3" y2="406"/><line class="b" x1="427.8" y1="368" x2="483.3" y2="368"/><line class="b" x1="427.8" y1="330" x2="483.3" y2="330"/><line class="b" x1="427.8" y1="292" x2="483.3" y2="292"/><line class="b" x1="427.8" y1="254" x2="483.3" y2="254"/><line class="b" x1="427.8" y1="216" x2="483.3" y2="216"/><line class="b" x1="427.8" y1="178" x2="483.3" y2="178"/></g><g class="e"><rect class="b" x="180" y="95.2" width="147.1" height="406.5"/><rect class="b" x="199.6" y="125.4" width="17.3" height="288.6"/><rect class="b" x="230.2" y="125.4" width="17.3" height="288.6"/><rect class="b" x="260.9" y="125.4" width="17.3" height="288.6"/><rect class="b" x="291.5" y="125.4" width="17.3" height="288.6"/><rect class="b" x="260.9" y="54" width="47.9" height="41.2"/><line class="b" x1="283.2" y1="54" x2="283.2" y2="18"/><rect class="b" x="197.7" y="68.3" width="45.4" height="26.9"/></g></g></svg>