<?xml version="1.0" encoding="UTF-8"?><svg id="a" xmlns="http://www.w3.org/2000/svg" viewBox="0 0 2433.77 613.95"><defs><style>.b,.c{stroke:#02283f;}.b,.c,.d{fill:none;stroke-linejoin:round;stroke-width:4px;}.b,.d{stroke-linecap:round;}.e{opacity:.6;}.f,.d{opacity:.15;}.d{isolation:isolate;stroke:#135677;}</style></defs><line class="d" x1="1217.9" y1="227.05" x2="1239.3" y2="250.95"/><g class="e"><g class="f"><rect class="b" x="764" y="240.35" width="152.5" height="371.6"/><line class="b" x1="797.2" y1="609.35" x2="797.2" y2="240.35"/><line class="b" x1="885.2" y1="609.35" x2="885.2" y2="240.35"/><line class="b" x1="841.2" y1="609.35" x2="841.2" y2="240.35"/><line class="b" x1="764.2" y1="279.35" x2="917.2" y2="279.35"/><line class="b" x1="764.2" y1="298.35" x2="917.2" y2="298.35"/><line class="b" x1="764.2" y1="345.35" x2="917.2" y2="345.35"/><line class="b" x1="764.2" y1="366.35" x2="917.2" y2="366.35"/><line class="b" x1="764.2" y1="415.35" x2="917.2" y2="415.35"/><line class="b" x1="764.2" y1="436.35" x2="917.2" y2="436.35"/><line class="b" x1="764.2" y1="487.35" x2="917.2" y2="487.35"/><line class="b" x1="764.2" y1="507.35" x2="917.2" y2="507.35"/><line class="b" x1="764.2" y1="550.35" x2="917.2" y2="550.35"/><line class="b" x1="764.2" y1="569.35" x2="917.2" y2="569.35"/><rect class="b" x="798" y="207.75" width="87.7" height="33.4"/><rect class="b" x="818.4" y="174.35" width="46.9" height="33.4"/></g><g class="f"><polyline class="b" points="1403.5 611.05 1341.7 611.05 1341.7 238.95 1504.7 238.95 1504.7 611.05 1456.7 611.05"/><rect class="b" x="1362.8" y="273.05" width="19.7" height="34.6"/><rect class="b" x="1396.5" y="273.05" width="19.7" height="34.6"/><rect class="b" x="1430.2" y="273.05" width="19.7" height="34.6"/><rect class="b" x="1464" y="273.05" width="19.7" height="34.6"/><rect class="b" x="1362.8" y="325.05" width="19.7" height="34.6"/><rect class="b" x="1396.5" y="325.05" width="19.7" height="34.6"/><rect class="b" x="1430.2" y="325.05" width="19.7" height="34.6"/><rect class="b" x="1464" y="325.05" width="19.7" height="34.6"/><rect class="b" x="1362.8" y="424.05" width="19.7" height="29.6"/><rect class="b" x="1396.5" y="424.05" width="19.7" height="29.6"/><rect class="b" x="1430.2" y="424.05" width="19.7" height="29.6"/><rect class="b" x="1464" y="424.05" width="19.7" height="29.6"/><rect class="b" x="1362.8" y="529.45" width="19.7" height="29.6"/><rect class="b" x="1396.5" y="529.45" width="19.7" height="29.6"/><rect class="b" x="1430.2" y="529.45" width="19.7" height="29.6"/><rect class="b" x="1464" y="529.45" width="19.7" height="29.6"/><line class="b" x1="1362.2" y1="389.35" x2="1483.2" y2="389.35"/><line class="b" x1="1362.2" y1="405.35" x2="1483.2" y2="405.35"/><line class="b" x1="1362.2" y1="473.35" x2="1483.2" y2="473.35"/><line class="b" x1="1362.2" y1="490.35" x2="1483.2" y2="490.35"/><line class="b" x1="1362.2" y1="507.35" x2="1483.2" y2="507.35"/><rect class="b" x="1372.6" y="203.35" width="110.6" height="35.6"/><rect class="b" x="1396.5" y="167.75" width="62.8" height="35.6"/><line class="b" x1="1426.2" y1="167.35" x2="1426.2" y2="111.35"/></g><g class="f"><polygon class="b" points="1259.9 611.35 1175.8 611.35 1175.8 250.45 1217.9 204.55 1259.9 250.45 1259.9 611.35"/><path class="b" d="M1330.4,611.35h-70.5v-290.9c0-40.6,26.7-47.2,70.5-68.3v359.2Z"/><line class="c" x1="1285.2" y1="531.35" x2="1285.2" y2="549.35"/><line class="c" x1="1304.2" y1="531.35" x2="1304.2" y2="549.35"/><line class="c" x1="1285.2" y1="493.35" x2="1285.2" y2="511.35"/><line class="c" x1="1304.2" y1="493.35" x2="1304.2" y2="511.35"/><line class="c" x1="1285.2" y1="455.35" x2="1285.2" y2="473.35"/><line class="c" x1="1304.2" y1="455.35" x2="1304.2" y2="473.35"/><line class="c" x1="1285.2" y1="417.35" x2="1285.2" y2="435.35"/><line class="c" x1="1304.2" y1="417.35" x2="1304.2" y2="435.35"/><line class="c" x1="1285.2" y1="379.35" x2="1285.2" y2="397.35"/><line class="c" x1="1304.2" y1="379.35" x2="1304.2" y2="397.35"/><line class="c" x1="1285.2" y1="341.35" x2="1285.2" y2="359.35"/><line class="c" x1="1304.2" y1="341.35" x2="1304.2" y2="359.35"/><line class="c" x1="1285.2" y1="303.35" x2="1285.2" y2="321.35"/><line class="c" x1="1304.2" y1="303.35" x2="1304.2" y2="321.35"/><path class="b" d="M1105,611.35h70.5v-290.9c0-40.6-26.7-47.2-70.5-68.3v359.2Z"/><line class="c" x1="1147.2" y1="531.35" x2="1147.2" y2="549.35"/><line class="c" x1="1129.2" y1="531.35" x2="1129.2" y2="549.35"/><line class="c" x1="1147.2" y1="493.35" x2="1147.2" y2="511.35"/><line class="c" x1="1129.2" y1="493.35" x2="1129.2" y2="511.35"/><line class="c" x1="1147.2" y1="455.35" x2="1147.2" y2="473.35"/><line class="c" x1="1129.2" y1="455.35" x2="1129.2" y2="473.35"/><line class="c" x1="1147.2" y1="417.35" x2="1147.2" y2="435.35"/><line class="c" x1="1129.2" y1="417.35" x2="1129.2" y2="435.35"/><line class="c" x1="1147.2" y1="379.35" x2="1147.2" y2="397.35"/><line class="c" x1="1129.2" y1="379.35" x2="1129.2" y2="397.35"/><line class="c" x1="1147.2" y1="341.35" x2="1147.2" y2="359.35"/><line class="c" x1="1129.2" y1="341.35" x2="1129.2" y2="359.35"/><line class="c" x1="1147.2" y1="303.35" x2="1147.2" y2="321.35"/><line class="c" x1="1129.2" y1="303.35" x2="1129.2" y2="321.35"/><line class="b" x1="1201.2" y1="263.35" x2="1201.2" y2="522.35"/><line class="b" x1="1237.2" y1="263.35" x2="1237.2" y2="522.35"/><line class="b" x1="1189.8" y1="515.35" x2="1245.3" y2="515.35"/><line class="b" x1="1189.8" y1="477.35" x2="1245.3" y2="477.35"/><line class="b" x1="1189.8" y1="439.35" x2="1245.3" y2="439.35"/><line class="b" x1="1189.8" y1="401.35" x2="1245.3" y2="401.35"/><line class="b" x1="1189.8" y1="363.35" x2="1245.3" y2="363.35"/><line class="b" x1="1189.8" y1="325.35" x2="1245.3" y2="325.35"/><line class="b" x1="1189.8" y1="287.35" x2="1245.3" y2="287.35"/></g><g class="f"><rect class="b" x="942" y="204.55" width="147.1" height="406.5"/><rect class="b" x="961.6" y="234.75" width="17.3" height="288.6"/><rect class="b" x="992.2" y="234.75" width="17.3" height="288.6"/><rect class="b" x="1022.9" y="234.75" width="17.3" height="288.6"/><rect class="b" x="1053.5" y="234.75" width="17.3" height="288.6"/><rect class="b" x="1022.9" y="163.35" width="47.9" height="41.2"/><line class="b" x1="1045.2" y1="163.35" x2="1045.2" y2="127.35"/><rect class="b" x="959.7" y="177.65" width="45.4" height="26.9"/></g></g><g class="e"><g class="f"><rect class="b" x="2" y="240.35" width="152.5" height="371.6"/><line class="b" x1="35.2" y1="609.35" x2="35.2" y2="240.35"/><line class="b" x1="123.2" y1="609.35" x2="123.2" y2="240.35"/><line class="b" x1="79.2" y1="609.35" x2="79.2" y2="240.35"/><line class="b" x1="2.2" y1="279.35" x2="155.2" y2="279.35"/><line class="b" x1="2.2" y1="298.35" x2="155.2" y2="298.35"/><line class="b" x1="2.2" y1="345.35" x2="155.2" y2="345.35"/><line class="b" x1="2.2" y1="366.35" x2="155.2" y2="366.35"/><line class="b" x1="2.2" y1="415.35" x2="155.2" y2="415.35"/><line class="b" x1="2.2" y1="436.35" x2="155.2" y2="436.35"/><line class="b" x1="2.2" y1="487.35" x2="155.2" y2="487.35"/><line class="b" x1="2.2" y1="507.35" x2="155.2" y2="507.35"/><line class="b" x1="2.2" y1="550.35" x2="155.2" y2="550.35"/><line class="b" x1="2.2" y1="569.35" x2="155.2" y2="569.35"/><rect class="b" x="36" y="207.75" width="87.7" height="33.4"/><rect class="b" x="56.4" y="174.35" width="46.9" height="33.4"/></g><g class="f"><polyline class="b" points="641.5 611.05 579.7 611.05 579.7 238.95 742.7 238.95 742.7 611.05 694.7 611.05"/><rect class="b" x="600.8" y="273.05" width="19.7" height="34.6"/><rect class="b" x="634.5" y="273.05" width="19.7" height="34.6"/><rect class="b" x="668.2" y="273.05" width="19.7" height="34.6"/><rect class="b" x="702" y="273.05" width="19.7" height="34.6"/><rect class="b" x="600.8" y="325.05" width="19.7" height="34.6"/><rect class="b" x="634.5" y="325.05" width="19.7" height="34.6"/><rect class="b" x="668.2" y="325.05" width="19.7" height="34.6"/><rect class="b" x="702" y="325.05" width="19.7" height="34.6"/><rect class="b" x="600.8" y="424.05" width="19.7" height="29.6"/><rect class="b" x="634.5" y="424.05" width="19.7" height="29.6"/><rect class="b" x="668.2" y="424.05" width="19.7" height="29.6"/><rect class="b" x="702" y="424.05" width="19.7" height="29.6"/><rect class="b" x="600.8" y="529.45" width="19.7" height="29.6"/><rect class="b" x="634.5" y="529.45" width="19.7" height="29.6"/><rect class="b" x="668.2" y="529.45" width="19.7" height="29.6"/><rect class="b" x="702" y="529.45" width="19.7" height="29.6"/><line class="b" x1="600.2" y1="389.35" x2="721.2" y2="389.35"/><line class="b" x1="600.2" y1="405.35" x2="721.2" y2="405.35"/><line class="b" x1="600.2" y1="473.35" x2="721.2" y2="473.35"/><line class="b" x1="600.2" y1="490.35" x2="721.2" y2="490.35"/><line class="b" x1="600.2" y1="507.35" x2="721.2" y2="507.35"/><rect class="b" x="610.6" y="203.35" width="110.6" height="35.6"/><rect class="b" x="634.5" y="167.75" width="62.8" height="35.6"/><line class="b" x1="664.2" y1="167.35" x2="664.2" y2="111.35"/></g><g class="f"><polygon class="b" points="497.9 611.35 413.8 611.35 413.8 250.45 455.9 204.55 497.9 250.45 497.9 611.35"/><path class="b" d="M568.4,611.35h-70.5v-290.9c0-40.6,26.7-47.2,70.5-68.3v359.2Z"/><line class="c" x1="523.2" y1="531.35" x2="523.2" y2="549.35"/><line class="c" x1="542.2" y1="531.35" x2="542.2" y2="549.35"/><line class="c" x1="523.2" y1="493.35" x2="523.2" y2="511.35"/><line class="c" x1="542.2" y1="493.35" x2="542.2" y2="511.35"/><line class="c" x1="523.2" y1="455.35" x2="523.2" y2="473.35"/><line class="c" x1="542.2" y1="455.35" x2="542.2" y2="473.35"/><line class="c" x1="523.2" y1="417.35" x2="523.2" y2="435.35"/><line class="c" x1="542.2" y1="417.35" x2="542.2" y2="435.35"/><line class="c" x1="523.2" y1="379.35" x2="523.2" y2="397.35"/><line class="c" x1="542.2" y1="379.35" x2="542.2" y2="397.35"/><line class="c" x1="523.2" y1="341.35" x2="523.2" y2="359.35"/><line class="c" x1="542.2" y1="341.35" x2="542.2" y2="359.35"/><line class="c" x1="523.2" y1="303.35" x2="523.2" y2="321.35"/><line class="c" x1="542.2" y1="303.35" x2="542.2" y2="321.35"/><path class="b" d="M343,611.35h70.5v-290.9c0-40.6-26.7-47.2-70.5-68.3v359.2Z"/><line class="c" x1="385.2" y1="531.35" x2="385.2" y2="549.35"/><line class="c" x1="367.2" y1="531.35" x2="367.2" y2="549.35"/><line class="c" x1="385.2" y1="493.35" x2="385.2" y2="511.35"/><line class="c" x1="367.2" y1="493.35" x2="367.2" y2="511.35"/><line class="c" x1="385.2" y1="455.35" x2="385.2" y2="473.35"/><line class="c" x1="367.2" y1="455.35" x2="367.2" y2="473.35"/><line class="c" x1="385.2" y1="417.35" x2="385.2" y2="435.35"/><line class="c" x1="367.2" y1="417.35" x2="367.2" y2="435.35"/><line class="c" x1="385.2" y1="379.35" x2="385.2" y2="397.35"/><line class="c" x1="367.2" y1="379.35" x2="367.2" y2="397.35"/><line class="c" x1="385.2" y1="341.35" x2="385.2" y2="359.35"/><line class="c" x1="367.2" y1="341.35" x2="367.2" y2="359.35"/><line class="c" x1="385.2" y1="303.35" x2="385.2" y2="321.35"/><line class="c" x1="367.2" y1="303.35" x2="367.2" y2="321.35"/><line class="b" x1="439.2" y1="263.35" x2="439.2" y2="522.35"/><line class="b" x1="475.2" y1="263.35" x2="475.2" y2="522.35"/><line class="b" x1="427.8" y1="515.35" x2="483.3" y2="515.35"/><line class="b" x1="427.8" y1="477.35" x2="483.3" y2="477.35"/><line class="b" x1="427.8" y1="439.35" x2="483.3" y2="439.35"/><line class="b" x1="427.8" y1="401.35" x2="483.3" y2="401.35"/><line class="b" x1="427.8" y1="363.35" x2="483.3" y2="363.35"/><line class="b" x1="427.8" y1="325.35" x2="483.3" y2="325.35"/><line class="b" x1="427.8" y1="287.35" x2="483.3" y2="287.35"/></g><g class="f"><rect class="b" x="180" y="204.55" width="147.1" height="406.5"/><rect class="b" x="199.6" y="234.75" width="17.3" height="288.6"/><rect class="b" x="230.2" y="234.75" width="17.3" height="288.6"/><rect class="b" x="260.9" y="234.75" width="17.3" height="288.6"/><rect class="b" x="291.5" y="234.75" width="17.3" height="288.6"/><rect class="b" x="260.9" y="163.35" width="47.9" height="41.2"/><line class="b" x1="283.2" y1="163.35" x2="283.2" y2="127.35"/><rect class="b" x="197.7" y="177.65" width="45.4" height="26.9"/></g></g><g class="e"><g class="f"><rect class="b" x="1528" y="240.35" width="152.5" height="371.6"/><line class="b" x1="1561.2" y1="609.35" x2="1561.2" y2="240.35"/><line class="b" x1="1649.2" y1="609.35" x2="1649.2" y2="240.35"/><line class="b" x1="1605.2" y1="609.35" x2="1605.2" y2="240.35"/><line class="b" x1="1528.2" y1="279.35" x2="1681.2" y2="279.35"/><line class="b" x1="1528.2" y1="298.35" x2="1681.2" y2="298.35"/><line class="b" x1="1528.2" y1="345.35" x2="1681.2" y2="345.35"/><line class="b" x1="1528.2" y1="366.35" x2="1681.2" y2="366.35"/><line class="b" x1="1528.2" y1="415.35" x2="1681.2" y2="415.35"/><line class="b" x1="1528.2" y1="436.35" x2="1681.2" y2="436.35"/><line class="b" x1="1528.2" y1="487.35" x2="1681.2" y2="487.35"/><line class="b" x1="1528.2" y1="507.35" x2="1681.2" y2="507.35"/><line class="b" x1="1528.2" y1="550.35" x2="1681.2" y2="550.35"/><line class="b" x1="1528.2" y1="569.35" x2="1681.2" y2="569.35"/><rect class="b" x="1562" y="207.75" width="87.7" height="33.4"/><rect class="b" x="1582.4" y="174.35" width="46.9" height="33.4"/></g><g class="f"><polyline class="b" points="2167.5 611.05 2105.7 611.05 2105.7 238.95 2268.7 238.95 2268.7 611.05 2220.7 611.05"/><rect class="b" x="2126.8" y="273.05" width="19.7" height="34.6"/><rect class="b" x="2160.5" y="273.05" width="19.7" height="34.6"/><rect class="b" x="2194.2" y="273.05" width="19.7" height="34.6"/><rect class="b" x="2228" y="273.05" width="19.7" height="34.6"/><rect class="b" x="2126.8" y="325.05" width="19.7" height="34.6"/><rect class="b" x="2160.5" y="325.05" width="19.7" height="34.6"/><rect class="b" x="2194.2" y="325.05" width="19.7" height="34.6"/><rect class="b" x="2228" y="325.05" width="19.7" height="34.6"/><rect class="b" x="2126.8" y="424.05" width="19.7" height="29.6"/><rect class="b" x="2160.5" y="424.05" width="19.7" height="29.6"/><rect class="b" x="2194.2" y="424.05" width="19.7" height="29.6"/><rect class="b" x="2228" y="424.05" width="19.7" height="29.6"/><rect class="b" x="2126.8" y="529.45" width="19.7" height="29.6"/><rect class="b" x="2160.5" y="529.45" width="19.7" height="29.6"/><rect class="b" x="2194.2" y="529.45" width="19.7" height="29.6"/><rect class="b" x="2228" y="529.45" width="19.7" height="29.6"/><line class="b" x1="2126.2" y1="389.35" x2="2247.2" y2="389.35"/><line class="b" x1="2126.2" y1="405.35" x2="2247.2" y2="405.35"/><line class="b" x1="2126.2" y1="473.35" x2="2247.2" y2="473.35"/><line class="b" x1="2126.2" y1="490.35" x2="2247.2" y2="490.35"/><line class="b" x1="2126.2" y1="507.35" x2="2247.2" y2="507.35"/><rect class="b" x="2136.6" y="203.35" width="110.6" height="35.6"/><rect class="b" x="2160.5" y="167.75" width="62.8" height="35.6"/><line class="b" x1="2190.2" y1="167.35" x2="2190.2" y2="111.35"/></g><g class="f"><polygon class="b" points="2023.9 611.35 1939.8 611.35 1939.8 250.45 1981.9 204.55 2023.9 250.45 2023.9 611.35"/><path class="b" d="M2094.4,611.35h-70.5v-290.9c0-40.6,26.7-47.2,70.5-68.3v359.2Z"/><line class="c" x1="2049.2" y1="531.35" x2="2049.2" y2="549.35"/><line class="c" x1="2068.2" y1="531.35" x2="2068.2" y2="549.35"/><line class="c" x1="2049.2" y1="493.35" x2="2049.2" y2="511.35"/><line class="c" x1="2068.2" y1="493.35" x2="2068.2" y2="511.35"/><line class="c" x1="2049.2" y1="455.35" x2="2049.2" y2="473.35"/><line class="c" x1="2068.2" y1="455.35" x2="2068.2" y2="473.35"/><line class="c" x1="2049.2" y1="417.35" x2="2049.2" y2="435.35"/><line class="c" x1="2068.2" y1="417.35" x2="2068.2" y2="435.35"/><line class="c" x1="2049.2" y1="379.35" x2="2049.2" y2="397.35"/><line class="c" x1="2068.2" y1="379.35" x2="2068.2" y2="397.35"/><line class="c" x1="2049.2" y1="341.35" x2="2049.2" y2="359.35"/><line class="c" x1="2068.2" y1="341.35" x2="2068.2" y2="359.35"/><line class="c" x1="2049.2" y1="303.35" x2="2049.2" y2="321.35"/><line class="c" x1="2068.2" y1="303.35" x2="2068.2" y2="321.35"/><path class="b" d="M1869,611.35h70.5v-290.9c0-40.6-26.7-47.2-70.5-68.3v359.2Z"/><line class="c" x1="1911.2" y1="531.35" x2="1911.2" y2="549.35"/><line class="c" x1="1893.2" y1="531.35" x2="1893.2" y2="549.35"/><line class="c" x1="1911.2" y1="493.35" x2="1911.2" y2="511.35"/><line class="c" x1="1893.2" y1="493.35" x2="1893.2" y2="511.35"/><line class="c" x1="1911.2" y1="455.35" x2="1911.2" y2="473.35"/><line class="c" x1="1893.2" y1="455.35" x2="1893.2" y2="473.35"/><line class="c" x1="1911.2" y1="417.35" x2="1911.2" y2="435.35"/><line class="c" x1="1893.2" y1="417.35" x2="1893.2" y2="435.35"/><line class="c" x1="1911.2" y1="379.35" x2="1911.2" y2="397.35"/><line class="c" x1="1893.2" y1="379.35" x2="1893.2" y2="397.35"/><line class="c" x1="1911.2" y1="341.35" x2="1911.2" y2="359.35"/><line class="c" x1="1893.2" y1="341.35" x2="1893.2" y2="359.35"/><line class="c" x1="1911.2" y1="303.35" x2="1911.2" y2="321.35"/><line class="c" x1="1893.2" y1="303.35" x2="1893.2" y2="321.35"/><line class="b" x1="1965.2" y1="263.35" x2="1965.2" y2="522.35"/><line class="b" x1="2001.2" y1="263.35" x2="2001.2" y2="522.35"/><line class="b" x1="1953.8" y1="515.35" x2="2009.3" y2="515.35"/><line class="b" x1="1953.8" y1="477.35" x2="2009.3" y2="477.35"/><line class="b" x1="1953.8" y1="439.35" x2="2009.3" y2="439.35"/><line class="b" x1="1953.8" y1="401.35" x2="2009.3" y2="401.35"/><line class="b" x1="1953.8" y1="363.35" x2="2009.3" y2="363.35"/><line class="b" x1="1953.8" y1="325.35" x2="2009.3" y2="325.35"/><line class="b" x1="1953.8" y1="287.35" x2="2009.3" y2="287.35"/></g><g class="f"><rect class="b" x="1706" y="204.55" width="147.1" height="406.5"/><rect class="b" x="1725.6" y="234.75" width="17.3" height="288.6"/><rect class="b" x="1756.2" y="234.75" width="17.3" height="288.6"/><rect class="b" x="1786.9" y="234.75" width="17.3" height="288.6"/><rect class="b" x="1817.5" y="234.75" width="17.3" height="288.6"/><rect class="b" x="1786.9" y="163.35" width="47.9" height="41.2"/><line class="b" x1="1809.2" y1="163.35" x2="1809.2" y2="127.35"/><rect class="b" x="1723.7" y="177.65" width="45.4" height="26.9"/></g></g></svg>