<?xml version="1.0" encoding="UTF-8"?><svg id="a" xmlns="http://www.w3.org/2000/svg" viewBox="0 0 858.29 318.75"><defs><style>.b{fill:#ffbf73;}.c{stroke-width:6px;}.c,.d,.e{fill:none;stroke:#135677;stroke-linecap:round;stroke-linejoin:round;}.d{stroke-width:6px;}.e{stroke-width:8px;}</style></defs><path class="b" d="M796.2,5.25c-8.7-7-21-7-29.7,0-30,24.4-66.1,72.3-61.8,127.9,1.1,13.5,4.4,26.4,9.1,38.7.3.9.7,1.7,1.2,2.6,31.6,59.1,101.1,59.1,132.6,0,.4-.8.8-1.7,1.2-2.6,4.8-12.2,8.1-25.2,9.1-38.7,4.5-55.7-31.6-103.5-61.7-127.9Z"/><line class="e" x1="781.4" y1="314.75" x2="781.4" y2="101.75"/><path class="c" d="M802.2,72.25c-3.6,4.1-4.5,9.6-3.1,14.5,4.6.2,9.2-1.6,12.4-5.3,3.6-4.1,4.5-9.6,3.1-14.5-4.5-.2-9.1,1.6-12.4,5.3Z"/><path class="c" d="M774.4,41.85c-.2,5.3,2.4,10,6.5,12.9,3.6-2.7,6-6.8,6.2-11.6.2-5.3-2.4-10-6.5-12.9-3.6,2.6-6,6.8-6.2,11.6Z"/><path class="c" d="M744.5,88.05c1.4,5.3,5.3,9.2,10.2,10.8,2.7-3.7,3.9-8.5,2.6-13.3-1.4-5.3-5.3-9.2-10.2-10.8-2.8,3.7-3.9,8.6-2.6,13.3Z"/><path class="c" d="M811.7,163.45c-3.6,3.2-5.1,8-4.4,12.5,4,.7,8.3-.4,11.6-3.4,3.6-3.2,5.1-8,4.4-12.5-4.1-.6-8.4.5-11.6,3.4Z"/><path class="e" d="M750.7,154.75s9.2,24.7,30.7,26.3"/><path class="e" d="M781.3,155.35s19.5-8.4,21.1-28.9"/><path class="b" d="M684.4,317.65c0-31.4,25.5-56.9,56.9-56.9s56.9,25.5,56.9,56.9h-113.8Z"/><path class="b" d="M730.2,316.25c-5.1-15.66-18.7-26.8-34.7-26.8s-29.5,11.14-34.7,26.8h69.4Z"/><line class="e" x1="741.4" y1="282.75" x2="741.4" y2="313.75"/><line class="e" x1="761.1" y1="294.75" x2="741.4" y2="313.75"/><line class="c" x1="67.4" y1="58.75" x2="67.4" y2="313.75"/><line class="c" x1="22.1" y1="13.85" x2="67.4" y2="59.05"/><rect class="b" x="17.63" y="23.25" width="19.6" height="49.5" transform="translate(-25.91 33.45) rotate(-45)"/><rect class="d" x="17.63" y="23.25" width="19.6" height="49.5" transform="translate(-25.91 33.45) rotate(-45)"/><line class="c" x1="80.1" y1="106.75" x2="80.1" y2="313.75"/><line class="c" x1="125.3" y1="61.85" x2="80.1" y2="107.05"/><rect class="b" x="95.27" y="86.13" width="49.5" height="19.6" transform="translate(-32.68 112.96) rotate(-45)"/><rect class="d" x="95.27" y="86.13" width="49.5" height="19.6" transform="translate(-32.68 112.96) rotate(-45)"/></svg>