<?xml version="1.0" encoding="UTF-8"?><svg id="Layer_1" xmlns="http://www.w3.org/2000/svg" viewBox="0 0 37.92 37.91"><defs><style>.cls-1{fill:#fff;}</style></defs><path class="cls-1" d="M28.84,37.91c-.35,0-.69-.14-.94-.39l-8.95-8.95-8.95,8.95c-.25.25-.58.39-.94.39s-.69-.14-.94-.39L.39,29.77c-.52-.52-.52-1.35,0-1.87l8.95-8.95L.39,10.01c-.52-.52-.52-1.35,0-1.87L8.14.39c.25-.25.58-.39.94-.39s.69.14.94.39l8.95,8.95L27.9.39c.25-.25.58-.39.94-.39s.69.14.94.39l7.75,7.75c.52.52.52,1.35,0,1.87l-3.55,3.55c-.52.52-1.35.52-1.87,0s-.52-1.35,0-1.87l2.61-2.61-5.88-5.88-8.95,8.95c-.25.25-.58.39-.94.39s-.69-.14-.94-.39L9.08,3.19l-5.88,5.88,8.95,8.95c.52.52.52,1.35,0,1.87L3.19,28.84l5.88,5.88,8.95-8.95c.25-.25.58-.39.94-.39s.69.14.94.39l8.95,8.95,5.88-5.88-2.47-2.47c-.52-.52-.52-1.35,0-1.87s1.35-.52,1.87,0l3.4,3.4c.52.52.52,1.35,0,1.87l-7.75,7.75c-.25.25-.58.39-.94.39Z"/><path class="cls-1" d="M29.22,22.79c-.34,0-.68-.13-.94-.39l-2.51-2.51c-.25-.25-.39-.58-.39-.94s.14-.69.39-.94l2.55-2.55c.52-.52,1.35-.52,1.87,0s.52,1.35,0,1.87l-1.62,1.61,1.57,1.57c.52.52.52,1.35,0,1.87-.26.26-.6.39-.94.39l.02.02Z"/></svg>